<svg xmlns="http://www.w3.org/2000/svg" width="800" height="400">
    <line x1="0" y1="400" x2="800" y2="400" stroke="lightgray" stroke-width="0.5" />
    <text x="405" y="398" font-size="10" fill="black"> -5.7 </text>
    <line x1="0" y1="360" x2="800" y2="360" stroke="lightgray" stroke-width="0.5" />
    <text x="405" y="358" font-size="10" fill="black"> -4.2 </text>
    <line x1="0" y1="320" x2="800" y2="320" stroke="lightgray" stroke-width="0.5" />
    <text x="405" y="318" font-size="10" fill="black"> -2.8 </text>
    <line x1="0" y1="280" x2="800" y2="280" stroke="lightgray" stroke-width="0.5" />
    <text x="405" y="278" font-size="10" fill="black"> -1.4 </text>
    <line x1="0" y1="240" x2="800" y2="240" stroke="lightgray" stroke-width="0.5" />
    <text x="405" y="238" font-size="10" fill="black"> 0.1 </text>
    <line x1="0" y1="200" x2="800" y2="200" stroke="lightgray" stroke-width="0.5" />
    <text x="405" y="198" font-size="10" fill="black"> 1.5 </text>
    <line x1="0" y1="160" x2="800" y2="160" stroke="lightgray" stroke-width="0.5" />
    <text x="405" y="158" font-size="10" fill="black"> 2.9 </text>
    <line x1="0" y1="120" x2="800" y2="120" stroke="lightgray" stroke-width="0.5" />
    <text x="405" y="118" font-size="10" fill="black"> 4.4 </text>
    <line x1="0" y1="80" x2="800" y2="80" stroke="lightgray" stroke-width="0.5" />
    <text x="405" y="78" font-size="10" fill="black"> 5.8 </text>
    <line x1="0" y1="40" x2="800" y2="40" stroke="lightgray" stroke-width="0.5" />
    <text x="405" y="38" font-size="10" fill="black"> 7.2 </text>
    <line x1="0" y1="0" x2="800" y2="0" stroke="lightgray" stroke-width="0.5" />
    <text x="405" y="-2" font-size="10" fill="black"> 8.7 </text>
    <line x1="0" y1="0" x2="0" y2="400" stroke="lightgray" stroke-width="0.5" />
    <text x="2" y="239.958041958042" font-size="10" fill="black"> -10.0 </text>
    <line x1="80" y1="0" x2="80" y2="400" stroke="lightgray" stroke-width="0.5" />
    <text x="82" y="239.958041958042" font-size="10" fill="black"> -8.0 </text>
    <line x1="160" y1="0" x2="160" y2="400" stroke="lightgray" stroke-width="0.5" />
    <text x="162" y="239.958041958042" font-size="10" fill="black"> -6.0 </text>
    <line x1="240" y1="0" x2="240" y2="400" stroke="lightgray" stroke-width="0.5" />
    <text x="242" y="239.958041958042" font-size="10" fill="black"> -4.0 </text>
    <line x1="320" y1="0" x2="320" y2="400" stroke="lightgray" stroke-width="0.5" />
    <text x="322" y="239.958041958042" font-size="10" fill="black"> -2.0 </text>
    <line x1="400" y1="0" x2="400" y2="400" stroke="lightgray" stroke-width="0.5" />
    <line x1="480" y1="0" x2="480" y2="400" stroke="lightgray" stroke-width="0.5" />
    <text x="482" y="239.958041958042" font-size="10" fill="black"> 2.0 </text>
    <line x1="560" y1="0" x2="560" y2="400" stroke="lightgray" stroke-width="0.5" />
    <text x="562" y="239.958041958042" font-size="10" fill="black"> 4.0 </text>
    <line x1="640" y1="0" x2="640" y2="400" stroke="lightgray" stroke-width="0.5" />
    <text x="642" y="239.958041958042" font-size="10" fill="black"> 6.0 </text>
    <line x1="720" y1="0" x2="720" y2="400" stroke="lightgray" stroke-width="0.5" />
    <text x="722" y="239.958041958042" font-size="10" fill="black"> 8.0 </text>
    <line x1="800" y1="0" x2="800" y2="400" stroke="lightgray" stroke-width="0.5" />
    <text x="802" y="239.958041958042" font-size="10" fill="black"> 10.0 </text>
    <line x1="0" y1="241.958041958042" x2="800" y2="241.958041958042" stroke="black" stroke-width="1" />
    <line x1="400" y1="0" x2="400" y2="400" stroke="black" stroke-width="1" />
    <polyline points="0.00, 226.74 4.00, 229.16 8.00, 231.71 12.00, 234.36 16.00, 237.08 20.00, 239.86 24.00, 242.65 28.00, 245.44 32.00, 248.19 36.00, 250.88 40.00, 253.49 44.00, 255.97 48.00, 258.32 52.00, 260.50 56.00, 262.50 60.00, 264.29 64.00, 265.86 68.00, 267.19 72.00, 268.27 76.00, 269.09 80.00, 269.63 84.00, 269.90 88.00, 269.89 92.00, 269.60 96.00, 269.03 100.00, 268.20 104.00, 267.10 108.00, 265.75 112.00, 264.16 116.00, 262.35 120.00, 260.34 124.00, 258.14 128.00, 255.78 132.00, 253.28 136.00, 250.67 140.00, 247.98 144.00, 245.22 148.00, 242.43 152.00, 239.63 156.00, 236.86 160.00, 234.14 164.00, 231.50 168.00, 228.96 172.00, 226.55 176.00, 224.30 180.00, 222.22 184.00, 220.34 188.00, 218.68 192.00, 217.25 196.00, 216.06 200.00, 215.13 204.00, 214.48 208.00, 214.09 212.00, 213.99 216.00, 214.16 220.00, 214.61 224.00, 215.34 228.00, 216.33 232.00, 217.58 236.00, 219.07 240.00, 220.79 244.00, 222.72 248.00, 224.84 252.00, 227.14 256.00, 229.58 260.00, 232.15 264.00, 234.81 268.00, 237.55 272.00, 240.33 276.00, 243.12 280.00, 245.91 284.00, 248.65 288.00, 251.33 292.00, 253.91 296.00, 256.38 300.00, 258.70 304.00, 260.85 308.00, 262.82 312.00, 264.57 316.00, 266.10 320.00, 267.39 324.00, 268.43 328.00, 269.20 332.00, 269.70 336.00, 269.92 340.00, 269.86 344.00, 269.52 348.00, 268.91 352.00, 268.03 356.00, 266.89 360.00, 265.50 364.00, 263.87 368.00, 262.02 372.00, 259.98 376.00, 257.75 380.00, 255.37 384.00, 252.85 388.00, 250.22 392.00, 247.52 396.00, 244.75 400.00, 241.96 404.00, 239.17 408.00, 236.40 412.00, 233.69 416.00, 231.07 420.00, 228.55 424.00, 226.16 428.00, 223.94 432.00, 221.89 436.00, 220.05 440.00, 218.42 444.00, 217.03 448.00, 215.89 452.00, 215.01 456.00, 214.39 460.00, 214.06 464.00, 214.00 468.00, 214.22 472.00, 214.72 476.00, 215.49 480.00, 216.52 484.00, 217.81 488.00, 219.34 492.00, 221.10 496.00, 223.06 500.00, 225.22 504.00, 227.54 508.00, 230.00 512.00, 232.59 516.00, 235.27 520.00, 238.01 524.00, 240.79 528.00, 243.59 532.00, 246.37 536.00, 249.11 540.00, 251.77 544.00, 254.34 548.00, 256.78 552.00, 259.07 556.00, 261.20 560.00, 263.13 564.00, 264.85 568.00, 266.34 572.00, 267.59 576.00, 268.58 580.00, 269.30 584.00, 269.75 588.00, 269.93 592.00, 269.82 596.00, 269.44 600.00, 268.78 604.00, 267.85 608.00, 266.67 612.00, 265.24 616.00, 263.57 620.00, 261.69 624.00, 259.62 628.00, 257.36 632.00, 254.95 636.00, 252.42 640.00, 249.77 644.00, 247.05 648.00, 244.28 652.00, 241.49 656.00, 238.70 660.00, 235.94 664.00, 233.24 668.00, 230.63 672.00, 228.14 676.00, 225.78 680.00, 223.58 684.00, 221.57 688.00, 219.76 692.00, 218.17 696.00, 216.82 700.00, 215.72 704.00, 214.88 708.00, 214.32 712.00, 214.03 716.00, 214.02 720.00, 214.28 724.00, 214.83 728.00, 215.64 732.00, 216.72 736.00, 218.05 740.00, 219.62 744.00, 221.42 748.00, 223.41 752.00, 225.60 756.00, 227.94 760.00, 230.43 764.00, 233.03 768.00, 235.72 772.00, 238.48 776.00, 241.27 780.00, 244.06 784.00, 246.83 788.00, 249.56 792.00, 252.21 796.00, 254.76 800.00, 257.18" fill="none" stroke="red" stroke-width="2" />
    <polyline points="0.00, 265.43 4.00, 266.83 8.00, 267.98 12.00, 268.88 16.00, 269.50 20.00, 269.85 24.00, 269.92 28.00, 269.71 32.00, 269.23 36.00, 268.47 40.00, 267.44 44.00, 266.17 48.00, 264.65 52.00, 262.90 56.00, 260.94 60.00, 258.80 64.00, 256.48 68.00, 254.02 72.00, 251.44 76.00, 248.77 80.00, 246.03 84.00, 243.24 88.00, 240.45 92.00, 237.67 96.00, 234.93 100.00, 232.26 104.00, 229.69 108.00, 227.24 112.00, 224.94 116.00, 222.81 120.00, 220.87 124.00, 219.14 128.00, 217.64 132.00, 216.38 136.00, 215.38 140.00, 214.64 144.00, 214.18 148.00, 213.99 152.00, 214.08 156.00, 214.45 160.00, 215.10 164.00, 216.01 168.00, 217.19 172.00, 218.61 176.00, 220.26 180.00, 222.14 184.00, 224.20 188.00, 226.45 192.00, 228.85 196.00, 231.39 200.00, 234.02 204.00, 236.74 208.00, 239.51 212.00, 242.30 216.00, 245.10 220.00, 247.85 224.00, 250.55 228.00, 253.17 232.00, 255.67 236.00, 258.04 240.00, 260.24 244.00, 262.26 248.00, 264.08 252.00, 265.68 256.00, 267.04 260.00, 268.15 264.00, 269.00 268.00, 269.58 272.00, 269.88 276.00, 269.91 280.00, 269.65 284.00, 269.12 288.00, 268.31 292.00, 267.25 296.00, 265.93 300.00, 264.37 304.00, 262.58 308.00, 260.60 312.00, 258.42 316.00, 256.08 320.00, 253.60 324.00, 251.00 328.00, 248.31 332.00, 245.56 336.00, 242.77 340.00, 239.98 344.00, 237.20 348.00, 234.48 352.00, 231.82 356.00, 229.27 360.00, 226.84 364.00, 224.57 368.00, 222.47 372.00, 220.56 376.00, 218.87 380.00, 217.41 384.00, 216.19 388.00, 215.24 392.00, 214.54 396.00, 214.13 400.00, 213.99 404.00, 214.13 408.00, 214.54 412.00, 215.24 416.00, 216.19 420.00, 217.41 424.00, 218.87 428.00, 220.56 432.00, 222.47 436.00, 224.57 440.00, 226.84 444.00, 229.27 448.00, 231.82 452.00, 234.48 456.00, 237.20 460.00, 239.98 464.00, 242.77 468.00, 245.56 472.00, 248.31 476.00, 251.00 480.00, 253.60 484.00, 256.08 488.00, 258.42 492.00, 260.60 496.00, 262.58 500.00, 264.37 504.00, 265.93 508.00, 267.25 512.00, 268.31 516.00, 269.12 520.00, 269.65 524.00, 269.91 528.00, 269.88 532.00, 269.58 536.00, 269.00 540.00, 268.15 544.00, 267.04 548.00, 265.68 552.00, 264.08 556.00, 262.26 560.00, 260.24 564.00, 258.04 568.00, 255.67 572.00, 253.17 576.00, 250.55 580.00, 247.85 584.00, 245.10 588.00, 242.30 592.00, 239.51 596.00, 236.74 600.00, 234.02 604.00, 231.39 608.00, 228.85 612.00, 226.45 616.00, 224.20 620.00, 222.14 624.00, 220.26 628.00, 218.61 632.00, 217.19 636.00, 216.01 640.00, 215.10 644.00, 214.45 648.00, 214.08 652.00, 213.99 656.00, 214.18 660.00, 214.64 664.00, 215.38 668.00, 216.38 672.00, 217.64 676.00, 219.14 680.00, 220.87 684.00, 222.81 688.00, 224.94 692.00, 227.24 696.00, 229.69 700.00, 232.26 704.00, 234.93 708.00, 237.67 712.00, 240.45 716.00, 243.24 720.00, 246.03 724.00, 248.77 728.00, 251.44 732.00, 254.02 736.00, 256.48 740.00, 258.80 744.00, 260.94 748.00, 262.90 752.00, 264.65 756.00, 266.17 760.00, 267.44 764.00, 268.47 768.00, 269.23 772.00, 269.71 776.00, 269.92 780.00, 269.85 784.00, 269.50 788.00, 268.88 792.00, 267.98 796.00, 266.83 800.00, 265.43" fill="none" stroke="green" stroke-width="2" />
    <polyline points="0.00, 381.82 4.00, 380.42 8.00, 379.02 12.00, 377.62 16.00, 376.22 20.00, 374.83 24.00, 373.43 28.00, 372.03 32.00, 370.63 36.00, 369.23 40.00, 367.83 44.00, 366.43 48.00, 365.03 52.00, 363.64 56.00, 362.24 60.00, 360.84 64.00, 359.44 68.00, 358.04 72.00, 356.64 76.00, 355.24 80.00, 353.85 84.00, 352.45 88.00, 351.05 92.00, 349.65 96.00, 348.25 100.00, 346.85 104.00, 345.45 108.00, 344.06 112.00, 342.66 116.00, 341.26 120.00, 339.86 124.00, 338.46 128.00, 337.06 132.00, 335.66 136.00, 334.27 140.00, 332.87 144.00, 331.47 148.00, 330.07 152.00, 328.67 156.00, 327.27 160.00, 325.87 164.00, 324.48 168.00, 323.08 172.00, 321.68 176.00, 320.28 180.00, 318.88 184.00, 317.48 188.00, 316.08 192.00, 314.69 196.00, 313.29 200.00, 311.89 204.00, 310.49 208.00, 309.09 212.00, 307.69 216.00, 306.29 220.00, 304.90 224.00, 303.50 228.00, 302.10 232.00, 300.70 236.00, 299.30 240.00, 297.90 244.00, 296.50 248.00, 295.10 252.00, 293.71 256.00, 292.31 260.00, 290.91 264.00, 289.51 268.00, 288.11 272.00, 286.71 276.00, 285.31 280.00, 283.92 284.00, 282.52 288.00, 281.12 292.00, 279.72 296.00, 278.32 300.00, 276.92 304.00, 275.52 308.00, 274.13 312.00, 272.73 316.00, 271.33 320.00, 269.93 324.00, 268.53 328.00, 267.13 332.00, 265.73 336.00, 264.34 340.00, 262.94 344.00, 261.54 348.00, 260.14 352.00, 258.74 356.00, 257.34 360.00, 255.94 364.00, 254.55 368.00, 253.15 372.00, 251.75 376.00, 250.35 380.00, 248.95 384.00, 247.55 388.00, 246.15 392.00, 244.76 396.00, 243.36 400.00, 241.96 404.00, 240.56 408.00, 239.16 412.00, 237.76 416.00, 236.36 420.00, 234.97 424.00, 233.57 428.00, 232.17 432.00, 230.77 436.00, 229.37 440.00, 227.97 444.00, 226.57 448.00, 225.17 452.00, 223.78 456.00, 222.38 460.00, 220.98 464.00, 219.58 468.00, 218.18 472.00, 216.78 476.00, 215.38 480.00, 213.99 484.00, 212.59 488.00, 211.19 492.00, 209.79 496.00, 208.39 500.00, 206.99 504.00, 205.59 508.00, 204.20 512.00, 202.80 516.00, 201.40 520.00, 200.00 524.00, 198.60 528.00, 197.20 532.00, 195.80 536.00, 194.41 540.00, 193.01 544.00, 191.61 548.00, 190.21 552.00, 188.81 556.00, 187.41 560.00, 186.01 564.00, 184.62 568.00, 183.22 572.00, 181.82 576.00, 180.42 580.00, 179.02 584.00, 177.62 588.00, 176.22 592.00, 174.83 596.00, 173.43 600.00, 172.03 604.00, 170.63 608.00, 169.23 612.00, 167.83 616.00, 166.43 620.00, 165.03 624.00, 163.64 628.00, 162.24 632.00, 160.84 636.00, 159.44 640.00, 158.04 644.00, 156.64 648.00, 155.24 652.00, 153.85 656.00, 152.45 660.00, 151.05 664.00, 149.65 668.00, 148.25 672.00, 146.85 676.00, 145.45 680.00, 144.06 684.00, 142.66 688.00, 141.26 692.00, 139.86 696.00, 138.46 700.00, 137.06 704.00, 135.66 708.00, 134.27 712.00, 132.87 716.00, 131.47 720.00, 130.07 724.00, 128.67 728.00, 127.27 732.00, 125.87 736.00, 124.48 740.00, 123.08 744.00, 121.68 748.00, 120.28 752.00, 118.88 756.00, 117.48 760.00, 116.08 764.00, 114.69 768.00, 113.29 772.00, 111.89 776.00, 110.49 780.00, 109.09 784.00, 107.69 788.00, 106.29 792.00, 104.90 796.00, 103.50 800.00, 102.10" fill="none" stroke="blue" stroke-width="2" />
    <polyline points="0.00, 18.18 4.00, 23.75 8.00, 29.26 12.00, 34.71 16.00, 40.11 20.00, 45.45 24.00, 50.74 28.00, 55.97 32.00, 61.15 36.00, 66.27 40.00, 71.33 44.00, 76.34 48.00, 81.29 52.00, 86.18 56.00, 91.02 60.00, 95.80 64.00, 100.53 68.00, 105.20 72.00, 109.82 76.00, 114.38 80.00, 118.88 84.00, 123.33 88.00, 127.72 92.00, 132.06 96.00, 136.34 100.00, 140.56 104.00, 144.73 108.00, 148.84 112.00, 152.90 116.00, 156.90 120.00, 160.84 124.00, 164.73 128.00, 168.56 132.00, 172.34 136.00, 176.06 140.00, 179.72 144.00, 183.33 148.00, 186.88 152.00, 190.38 156.00, 193.82 160.00, 197.20 164.00, 200.53 168.00, 203.80 172.00, 207.02 176.00, 210.18 180.00, 213.29 184.00, 216.34 188.00, 219.33 192.00, 222.27 196.00, 225.15 200.00, 227.97 204.00, 230.74 208.00, 233.45 212.00, 236.11 216.00, 238.71 220.00, 241.26 224.00, 243.75 228.00, 246.18 232.00, 248.56 236.00, 250.88 240.00, 253.15 244.00, 255.36 248.00, 257.51 252.00, 259.61 256.00, 261.65 260.00, 263.64 264.00, 265.57 268.00, 267.44 272.00, 269.26 276.00, 271.02 280.00, 272.73 284.00, 274.38 288.00, 275.97 292.00, 277.51 296.00, 278.99 300.00, 280.42 304.00, 281.79 308.00, 283.10 312.00, 284.36 316.00, 285.57 320.00, 286.71 324.00, 287.80 328.00, 288.84 332.00, 289.82 336.00, 290.74 340.00, 291.61 344.00, 292.42 348.00, 293.17 352.00, 293.87 356.00, 294.52 360.00, 295.10 364.00, 295.64 368.00, 296.11 372.00, 296.53 376.00, 296.90 380.00, 297.20 384.00, 297.45 388.00, 297.65 392.00, 297.79 396.00, 297.87 400.00, 297.90 404.00, 297.87 408.00, 297.79 412.00, 297.65 416.00, 297.45 420.00, 297.20 424.00, 296.90 428.00, 296.53 432.00, 296.11 436.00, 295.64 440.00, 295.10 444.00, 294.52 448.00, 293.87 452.00, 293.17 456.00, 292.42 460.00, 291.61 464.00, 290.74 468.00, 289.82 472.00, 288.84 476.00, 287.80 480.00, 286.71 484.00, 285.57 488.00, 284.36 492.00, 283.10 496.00, 281.79 500.00, 280.42 504.00, 278.99 508.00, 277.51 512.00, 275.97 516.00, 274.38 520.00, 272.73 524.00, 271.02 528.00, 269.26 532.00, 267.44 536.00, 265.57 540.00, 263.64 544.00, 261.65 548.00, 259.61 552.00, 257.51 556.00, 255.36 560.00, 253.15 564.00, 250.88 568.00, 248.56 572.00, 246.18 576.00, 243.75 580.00, 241.26 584.00, 238.71 588.00, 236.11 592.00, 233.45 596.00, 230.74 600.00, 227.97 604.00, 225.15 608.00, 222.27 612.00, 219.33 616.00, 216.34 620.00, 213.29 624.00, 210.18 628.00, 207.02 632.00, 203.80 636.00, 200.53 640.00, 197.20 644.00, 193.82 648.00, 190.38 652.00, 186.88 656.00, 183.33 660.00, 179.72 664.00, 176.06 668.00, 172.34 672.00, 168.56 676.00, 164.73 680.00, 160.84 684.00, 156.90 688.00, 152.90 692.00, 148.84 696.00, 144.73 700.00, 140.56 704.00, 136.34 708.00, 132.06 712.00, 127.72 716.00, 123.33 720.00, 118.88 724.00, 114.38 728.00, 109.82 732.00, 105.20 736.00, 100.53 740.00, 95.80 744.00, 91.02 748.00, 86.18 752.00, 81.29 756.00, 76.34 760.00, 71.33 764.00, 66.27 768.00, 61.15 772.00, 55.97 776.00, 50.74 780.00, 45.45 784.00, 40.11 788.00, 34.71 792.00, 29.26 796.00, 23.75 800.00, 18.18" fill="none" stroke="orange" stroke-width="2" />
</svg>
